<svg xmlns="http://www.w3.org/2000/svg" viewBox="0 0 48 48"><title>22-online education</title><g id="_22-online_education" data-name="22-online education"><path d="M45,4H44V1A1,1,0,0,0,42.794.021L24,3.978,5.206.021A1,1,0,0,0,4,1V4H3A3,3,0,0,0,0,7V27.317a2.994,2.994,0,0,0,2.486,2.956l21.343,3.712a.982.982,0,0,0,.342,0L32,32.624V34a3,3,0,0,0,3,3h4a2,2,0,0,1,2,2.108A2.119,2.119,0,0,1,38.83,41H19.91A6.006,6.006,0,0,0,14,36H6A6,6,0,0,0,6,48h8a6.006,6.006,0,0,0,5.91-5H38.83A4.09,4.09,0,0,0,43,39.213,3.97,3.97,0,0,0,41.9,36.246,4.017,4.017,0,0,0,39,35H35a1,1,0,0,1-1-1V32.276l11.514-2A2.994,2.994,0,0,0,48,27.317V7A3,3,0,0,0,45,4ZM23,31.812,2.828,28.3A1,1,0,0,1,2,27.317V7A1,1,0,0,1,3,6H4V25a1,1,0,0,0,.794.979L23,29.811Zm0-4.044L6,24.188V14.17l17,2.684ZM23,14.83,6,12.146V8.232l17,3.579Zm0-5.062L6,6.189V2.232l17,3.58ZM14,46H6a4,4,0,0,1,0-8h8a4,4,0,0,1,0,8ZM25,5.812l17-3.58V6.189L25,9.768Zm0,6L42,8.232v2.957L25,14.767Zm7,18.783-7,1.218v-2l7-1.473Zm0-4.3-7,1.474V21.8l7-1.556Zm1.626-8.074a1.008,1.008,0,0,0-.843-.2L25,19.753V16.811l17-3.579V24.188l-8,1.685V19A1,1,0,0,0,33.626,18.22ZM46,27.317a1,1,0,0,1-.828.986L34,30.246V27.917l9.206-1.938A1,1,0,0,0,44,25V6h1a1,1,0,0,1,1,1Z"/><rect x="13" y="41" width="3" height="2"/></g></svg>